<svg id="visual" viewBox="0 0 450 900" width="450" height="900" xmlns="http://www.w3.org/2000/svg" xmlns:xlink="http://www.w3.org/1999/xlink" version="1.1"><path d="M408 900L392.8 881.3C377.7 862.7 347.3 825.3 325.2 787.8C303 750.3 289 712.7 291.2 675.2C293.3 637.7 311.7 600.3 324.3 562.8C337 525.3 344 487.7 351.8 450.2C359.7 412.7 368.3 375.3 368.8 337.8C369.3 300.3 361.7 262.7 350.3 225.2C339 187.7 324 150.3 329.5 112.8C335 75.3 361 37.7 374 18.8L387 0L450 0L450 18.8C450 37.7 450 75.3 450 112.8C450 150.3 450 187.7 450 225.2C450 262.7 450 300.3 450 337.8C450 375.3 450 412.7 450 450.2C450 487.7 450 525.3 450 562.8C450 600.3 450 637.7 450 675.2C450 712.7 450 750.3 450 787.8C450 825.3 450 862.7 450 881.3L450 900Z" fill="#5bdcd7" stroke-linecap="round" stroke-linejoin="miter"></path></svg>