<svg id="visual" viewBox="0 0 450 1700" width="450" height="1700" xmlns="http://www.w3.org/2000/svg" xmlns:xlink="http://www.w3.org/1999/xlink" version="1.1"><path d="M85 0L82 21.8C79 43.7 73 87.3 70.3 131C67.7 174.7 68.3 218.3 71.7 261.8C75 305.3 81 348.7 89.8 392.2C98.7 435.7 110.3 479.3 109.5 523C108.7 566.7 95.3 610.3 89 654C82.7 697.7 83.3 741.3 86.5 784.8C89.7 828.3 95.3 871.7 91.2 915.2C87 958.7 73 1002.3 67.5 1046C62 1089.7 65 1133.3 65.3 1177C65.7 1220.7 63.3 1264.3 65.7 1307.8C68 1351.3 75 1394.7 85.5 1438.2C96 1481.7 110 1525.3 115.7 1569C121.3 1612.7 118.7 1656.3 117.3 1678.2L116 1700L0 1700L0 1678.2C0 1656.3 0 1612.7 0 1569C0 1525.3 0 1481.7 0 1438.2C0 1394.7 0 1351.3 0 1307.8C0 1264.3 0 1220.7 0 1177C0 1133.3 0 1089.7 0 1046C0 1002.3 0 958.7 0 915.2C0 871.7 0 828.3 0 784.8C0 741.3 0 697.7 0 654C0 610.3 0 566.7 0 523C0 479.3 0 435.7 0 392.2C0 348.7 0 305.3 0 261.8C0 218.3 0 174.7 0 131C0 87.3 0 43.7 0 21.8L0 0Z" fill="#5bdcd7" stroke-linecap="round" stroke-linejoin="miter"></path></svg>