<svg id="visual" viewBox="0 0 450 900" width="450" height="900" xmlns="http://www.w3.org/2000/svg" xmlns:xlink="http://www.w3.org/1999/xlink" version="1.1"><path d="M163 0L157.8 18.8C152.7 37.7 142.3 75.3 126.2 112.8C110 150.3 88 187.7 97.5 225.2C107 262.7 148 300.3 159 337.8C170 375.3 151 412.7 127.7 450.2C104.3 487.7 76.7 525.3 69.3 562.8C62 600.3 75 637.7 95.2 675.2C115.3 712.7 142.7 750.3 145 787.8C147.3 825.3 124.7 862.7 113.3 881.3L102 900L0 900L0 881.3C0 862.7 0 825.3 0 787.8C0 750.3 0 712.7 0 675.2C0 637.7 0 600.3 0 562.8C0 525.3 0 487.7 0 450.2C0 412.7 0 375.3 0 337.8C0 300.3 0 262.7 0 225.2C0 187.7 0 150.3 0 112.8C0 75.3 0 37.7 0 18.8L0 0Z" fill="#5bdcd7" stroke-linecap="round" stroke-linejoin="miter"></path></svg>